# xmcd CD database file
#
# Track frame offsets:
#	150
#	30510
#	56902
#	85715
#	114272
#	138507
#	168277
#	210662
#
# Disc length: 3145 seconds
#
# Revision: 0
# Processed by: cddbd v1.5PL3 Copyright (c) Steve Scherf et al.
# Submitted via: CDex 1.50
#
DISCID=630c4708
DTITLE=My Funny Valentine - Takehiro Honda, Nobuyuki Ino, MOriyama Takeo
DYEAR=1900
DGENRE=Jazz
TTITLE0=On Green Dolphin Street
TTITLE1=Stella by Starlight
TTITLE2=My Funny Valentine
TTITLE3=Little B's Poem
TTITLE4=いそしぎ
TTITLE5=Blues on the Corner
TTITLE6=My One and Only Love
TTITLE7='Round about Midnight
EXTD=
EXTT0=
EXTT1=
EXTT2=
EXTT3=
EXTT4=
EXTT5=
EXTT6=
EXTT7=
PLAYORDER=
